<svg width="21" height="21" viewBox="0 0 21 21" fill="none" xmlns="http://www.w3.org/2000/svg">
<path d="M8.52555 18.2747C9.11316 18.7934 9.88503 19.1081 10.7304 19.1081C11.5758 19.1081 12.3476 18.7934 12.9353 18.2747M15.7304 7.44141C15.7304 6.11532 15.2036 4.84355 14.2659 3.90587C13.3283 2.96819 12.0565 2.44141 10.7304 2.44141C9.40432 2.44141 8.13255 2.96819 7.19487 3.90587C6.25719 4.84355 5.7304 6.11532 5.7304 7.44141C5.7304 10.0166 5.08079 11.7797 4.35512 12.9459C3.74301 13.9296 3.43695 14.4215 3.44817 14.5587C3.4606 14.7106 3.49279 14.7686 3.61522 14.8594C3.72579 14.9414 4.22423 14.9414 5.22111 14.9414H16.2397C17.2366 14.9414 17.735 14.9414 17.8456 14.8594C17.968 14.7686 18.0002 14.7106 18.0126 14.5587C18.0239 14.4215 17.7178 13.9296 17.1057 12.9459C16.38 11.7797 15.7304 10.0166 15.7304 7.44141Z" stroke="#9395B8" stroke-width="1.5" stroke-linecap="round" stroke-linejoin="round"/>
</svg>
