<svg width="19" fill="none" height="19" viewBox="0 0 19 19" xmlns="http://www.w3.org/2000/svg">
<g clip-path="url(#clip0_7469_972)">
<path d="M9.11182 12.0234C6.62653 12.0234 4.61182 10.0087 4.61182 7.52344V3.35677C4.61182 3.04639 4.61182 2.89119 4.65705 2.76692C4.73287 2.5586 4.89698 2.39449 5.1053 2.31867C5.22957 2.27344 5.38476 2.27344 5.69515 2.27344H12.5285C12.8389 2.27344 12.9941 2.27344 13.1183 2.31867C13.3267 2.39449 13.4908 2.5586 13.5666 2.76692C13.6118 2.89119 13.6118 3.04639 13.6118 3.35677V7.52344C13.6118 10.0087 11.5971 12.0234 9.11182 12.0234ZM9.11182 12.0234V14.2734M13.6118 3.77344H15.4868C15.8363 3.77344 16.011 3.77344 16.1488 3.83053C16.3326 3.90665 16.4786 4.05265 16.5547 4.23642C16.6118 4.37425 16.6118 4.54898 16.6118 4.89844V5.27344C16.6118 5.97092 16.6118 6.31966 16.5351 6.60578C16.3271 7.38224 15.7206 7.98872 14.9442 8.19677C14.658 8.27344 14.3093 8.27344 13.6118 8.27344M4.61182 3.77344H2.73682C2.38736 3.77344 2.21263 3.77344 2.0748 3.83053C1.89103 3.90665 1.74503 4.05265 1.66891 4.23642C1.61182 4.37425 1.61182 4.54898 1.61182 4.89844V5.27344C1.61182 5.97092 1.61182 6.31966 1.68848 6.60578C1.89653 7.38224 2.50302 7.98872 3.27947 8.19677C3.5656 8.27344 3.91434 8.27344 4.61182 8.27344M5.69515 17.2734H12.5285C12.7126 17.2734 12.8618 17.1242 12.8618 16.9401C12.8618 15.4673 11.6679 14.2734 10.1951 14.2734H8.02848C6.55572 14.2734 5.36182 15.4673 5.36182 16.9401C5.36182 17.1242 5.51105 17.2734 5.69515 17.2734Z" stroke="#9395B8" stroke-width="1.35" stroke-linecap="round" stroke-linejoin="round"/>
</g>
<defs>
<clipPath id="clip0_7469_972">
<rect width="18" height="18" transform="translate(0.111816 0.773438)"/>
</clipPath>
</defs>
</svg>
