<svg width="19" fill="none" height="19" viewBox="0 0 19 19" xmlns="http://www.w3.org/2000/svg">
<g clip-path="url(#clip0_7469_960)">
<path d="M6.8617 16.5234V10.9734C6.8617 10.5534 6.8617 10.3434 6.94344 10.1829C7.01535 10.0418 7.13008 9.92709 7.2712 9.85518C7.43164 9.77344 7.64166 9.77344 8.0617 9.77344H10.1617C10.5817 9.77344 10.7918 9.77344 10.9522 9.85518C11.0933 9.92709 11.208 10.0418 11.28 10.1829C11.3617 10.3434 11.3617 10.5534 11.3617 10.9734V16.5234M1.61169 7.89844L8.3917 2.81344C8.64989 2.61979 8.77899 2.52297 8.92077 2.48565C9.04592 2.4527 9.17747 2.4527 9.30262 2.48565C9.44441 2.52297 9.5735 2.61979 9.8317 2.81344L16.6117 7.89844M3.1117 6.77344V14.1234C3.1117 14.9635 3.1117 15.3836 3.27519 15.7044C3.419 15.9867 3.64847 16.2161 3.93071 16.3599C4.25158 16.5234 4.67162 16.5234 5.5117 16.5234H12.7117C13.5518 16.5234 13.9718 16.5234 14.2927 16.3599C14.5749 16.2161 14.8044 15.9867 14.9482 15.7044C15.1117 15.3836 15.1117 14.9635 15.1117 14.1234V6.77344L10.5517 3.35344C10.0353 2.96615 9.77712 2.7725 9.49355 2.69786C9.24324 2.63197 8.98015 2.63197 8.72985 2.69786C8.44628 2.7725 8.18809 2.96615 7.6717 3.35344L3.1117 6.77344Z" stroke="#9395B8" stroke-width="1.35" stroke-linecap="round" stroke-linejoin="round"/>
</g>
<defs>
<clipPath id="clip0_7469_960">
<rect width="18" height="18" transform="translate(0.111755 0.773438)"/>
</clipPath>
</defs>
</svg>
