<svg width="19" fill="none" height="19" viewBox="0 0 19 19" xmlns="http://www.w3.org/2000/svg">
<g clip-path="url(#clip0_7469_980)">
<path d="M12.2939 6.59398C14.0513 8.35134 14.0513 11.2006 12.2939 12.9579M5.92996 12.9579C4.1726 11.2006 4.1726 8.35131 5.92996 6.59395M3.80864 15.0793C0.879705 12.1503 0.879705 7.40159 3.80864 4.47266M14.4152 4.47269C17.3442 7.40162 17.3442 12.1504 14.4152 15.0793M10.6119 9.77596C10.6119 10.6044 9.94036 11.276 9.11194 11.276C8.28351 11.276 7.61194 10.6044 7.61194 9.77596C7.61194 8.94753 8.28351 8.27596 9.11194 8.27596C9.94036 8.27596 10.6119 8.94753 10.6119 9.77596Z" stroke="#9395B8" stroke-width="1.38462" stroke-linecap="round" stroke-linejoin="round"/>
</g>
<defs>
<clipPath id="clip0_7469_980">
<rect width="18" height="18" transform="translate(0.111816 0.773438)"/>
</clipPath>
</defs>
</svg>
