<svg width="131" height="33" viewBox="0 0 131 33" fill="none" xmlns="http://www.w3.org/2000/svg">
<path d="M10.3666 12.1847C11.3475 12.1847 12.1426 11.3896 12.1426 10.4088C12.1426 9.42793 11.3475 8.63281 10.3666 8.63281C9.38582 8.63281 8.5907 9.42793 8.5907 10.4088C8.5907 11.3896 9.38582 12.1847 10.3666 12.1847Z" fill="#FF0000"/>
<g clip-path="url(#clip0_7469_946)">
<path d="M64.0626 8.78125H58.5099C56.8072 8.78125 55.4003 10.0398 55.1782 11.7428L53.5864 24.7733H56.8441L57.4363 19.9978H59.7109L62.2487 24.7733H66.0246L62.9265 18.9103L66.3947 14.7044C68.6528 11.9649 67.3943 8.78158 64.0626 8.78158V8.78125ZM63.2482 13.3715L60.8049 16.4071C60.6568 16.5924 60.3976 16.7032 60.1755 16.7032H57.8433L58.3987 12.0389H62.7297C63.4332 12.0389 63.7293 12.7424 63.2479 13.3715H63.2482Z" fill="black"/>
<path d="M92.583 8.78125H87.0303C85.3276 8.78125 83.9207 10.0398 83.6986 11.7428L82.1068 24.7733H85.3644L85.9567 19.9978H88.2313L90.769 24.7733H94.545L91.4468 18.9103L94.9151 14.7044C97.1732 11.9649 95.9147 8.78158 92.583 8.78158V8.78125ZM91.7686 13.3715L89.3253 16.4071C89.1772 16.5924 88.9179 16.7032 88.6958 16.7032H86.3637L86.9191 12.0389H91.2501C91.9535 12.0389 92.2497 12.7424 91.7683 13.3715H91.7686Z" fill="#FF2410"/>
<path d="M36.0397 8.78125H30.487C28.7843 8.78125 27.3774 10.0398 27.1553 11.7428L25.5635 24.7733H28.8212L29.4134 19.9978H32.7452C33.5595 19.9978 34.3738 19.6276 34.9292 18.9242L38.409 14.7041C40.8152 11.7797 39.3714 8.78125 36.0397 8.78125ZM35.2622 13.3715L32.8189 16.4071C32.6708 16.5924 32.4115 16.7032 32.1894 16.7032H29.8201L30.3755 12.0389H34.7437C35.4471 12.0389 35.7432 12.7424 35.2619 13.3715H35.2622Z" fill="black"/>
<path d="M47.4786 8.63281C44.0729 8.63281 41.0376 11.4463 40.5931 14.9998L40.1489 18.5165C39.7047 22.0703 42.0737 24.9206 45.4795 24.9206C48.8852 24.9206 51.9205 22.0703 52.365 18.5165L52.8092 14.9998C53.2534 11.4463 50.8841 8.63281 47.4786 8.63281ZM49.6996 14.9998L49.2554 18.5536C49.0333 20.2564 47.5527 21.6633 45.8868 21.6633C44.2209 21.6633 43.0364 20.2567 43.2585 18.5536L43.7027 14.9998C43.9248 13.2599 45.4054 11.8902 47.0713 11.8902C48.7372 11.8902 49.9217 13.2599 49.6996 14.9998Z" fill="black"/>
<path d="M13.5369 13.5936C13.2035 16.3699 14.9806 18.406 17.757 18.406H19.5337C20.4221 18.406 21.0143 19.0722 20.9034 19.9606C20.7922 20.849 20.0519 21.5153 19.1635 21.5153H12.5744L12.1671 24.7733H18.8306C21.5701 24.7733 23.8282 22.7373 24.1611 19.9978C24.4944 17.2215 22.7174 15.1483 19.941 15.1483H18.1643C17.2759 15.1483 16.6837 14.482 16.7946 13.5936C16.9058 12.7052 17.6461 12.0389 18.5344 12.0389H25.1235L25.5309 8.78125H18.9415C16.1651 8.78125 13.8698 10.8173 13.5369 13.5936Z" fill="black"/>
<path d="M113.63 15.1486C113.852 13.4087 115.333 12.0389 116.999 12.0389H121.706L122.113 8.78125H117.406C114 8.78125 110.965 11.5948 110.521 15.1483L110.113 18.3688C109.669 21.9226 112.001 24.7358 115.407 24.773H120.139L120.546 21.5153H115.814C114.148 21.4784 113.001 20.1087 113.223 18.4056L113.63 15.1479V15.1486Z" fill="#FF2410"/>
<path d="M98.0455 11.7432L96.8239 21.812C96.6018 23.5148 97.7122 24.7736 99.4153 24.7736H107.3L107.707 21.5159H100.156L100.526 18.4063H106.856L107.263 15.1486H100.933L101.303 12.0389H108.855L109.262 8.78125H101.378C99.6749 8.78125 98.268 10.0398 98.0459 11.7428L98.0455 11.7432Z" fill="#FF2410"/>
<path d="M69.3931 12.0389H73.9094L72.3547 24.7733H75.6124L77.1671 12.0389H81.6833L82.0906 8.78125H69.8005L69.3931 12.0389Z" fill="black"/>
</g>
<defs>
<clipPath id="clip0_7469_946">
<rect width="109.946" height="16.2882" fill="white" transform="translate(12.1671 8.63281)"/>
</clipPath>
</defs>
</svg>
