<svg width="19" fill="none" height="19" viewBox="0 0 19 19" xmlns="http://www.w3.org/2000/svg">
<g clip-path="url(#clip0_7469_964)">
<path d="M12.112 7.52344V5.27344C12.112 3.61658 10.7688 2.27344 9.11197 2.27344C7.45512 2.27344 6.11197 3.61658 6.11197 5.27344V7.52344M2.80597 8.53741L2.35597 13.3374C2.22803 14.7022 2.16405 15.3846 2.39051 15.9116C2.58944 16.3747 2.93806 16.7575 3.38049 16.9988C3.88412 17.2734 4.5695 17.2734 5.94026 17.2734H12.2837C13.6544 17.2734 14.3398 17.2734 14.8435 16.9988C15.2859 16.7575 15.6345 16.3747 15.8334 15.9116C16.0599 15.3846 15.9959 14.7022 15.868 13.3374L15.418 8.53741C15.3099 7.38495 15.2559 6.80871 14.9967 6.37306C14.7685 5.98938 14.4312 5.68227 14.0279 5.49082C13.57 5.27344 12.9912 5.27344 11.8337 5.27344L6.39026 5.27344C5.23274 5.27344 4.65398 5.27344 4.19604 5.49082C3.79272 5.68227 3.45548 5.98937 3.22722 6.37306C2.96804 6.80871 2.91402 7.38495 2.80597 8.53741Z" stroke="#9395B8" stroke-width="1.5" stroke-linecap="round" stroke-linejoin="round"/>
</g>
<defs>
<clipPath id="clip0_7469_964">
<rect width="18" height="18" transform="translate(0.111755 0.773438)"/>
</clipPath>
</defs>
</svg>
