<svg width="19" fill="none" height="19" viewBox="0 0 19 19" xmlns="http://www.w3.org/2000/svg">
<g clip-path="url(#clip0_7469_968)">
<path d="M16.6118 16.5234V15.0234C16.6118 13.6256 15.6557 12.451 14.3618 12.118M11.7368 3.24151C12.8363 3.68655 13.6118 4.76442 13.6118 6.02344C13.6118 7.28245 12.8363 8.36033 11.7368 8.80537M12.8618 16.5234C12.8618 15.1256 12.8618 14.4267 12.6335 13.8754C12.329 13.1403 11.745 12.5563 11.0099 12.2518C10.4586 12.0234 9.75964 12.0234 8.36182 12.0234H6.11182C4.71399 12.0234 4.01508 12.0234 3.46377 12.2518C2.72868 12.5563 2.14466 13.1403 1.84018 13.8754C1.61182 14.4267 1.61182 15.1256 1.61182 16.5234M10.2368 6.02344C10.2368 7.68029 8.89367 9.02344 7.23682 9.02344C5.57996 9.02344 4.23682 7.68029 4.23682 6.02344C4.23682 4.36658 5.57996 3.02344 7.23682 3.02344C8.89367 3.02344 10.2368 4.36658 10.2368 6.02344Z" stroke="#9395B8" stroke-width="1.35" stroke-linecap="round" stroke-linejoin="round"/>
</g>
<defs>
<clipPath id="clip0_7469_968">
<rect width="18" height="18" transform="translate(0.111816 0.773438)"/>
</clipPath>
</defs>
</svg>
